HIERARCHY
ROOT Hips
{
	OFFSET 0.00000 0.00000 0.00000
	CHANNELS 6 Xposition Yposition Zposition Zrotation Yrotation Xrotation 
	JOINT LHipJoint
	{
		OFFSET 0 0 0
		CHANNELS 3 Zrotation Yrotation Xrotation
		JOINT LeftUpLeg
		{
			OFFSET 1.53139 -1.83434 0.76626
			CHANNELS 3 Zrotation Yrotation Xrotation
			JOINT LeftLeg
			{
				OFFSET 2.56112 -7.03663 0.00000
				CHANNELS 3 Zrotation Yrotation Xrotation
				JOINT LeftFoot
				{
					OFFSET 2.59983 -7.14299 0.00000
					CHANNELS 3 Zrotation Yrotation Xrotation
					JOINT LeftToeBase
					{
						OFFSET 0.13742 -0.37757 2.00054
						CHANNELS 3 Zrotation Yrotation Xrotation
						End Site
						{
							OFFSET 0.00000 -0.00000 1.02897
						}
					}
				}
			}
		}
	}
	JOINT RHipJoint
	{
		OFFSET 0 0 0
		CHANNELS 3 Zrotation Yrotation Xrotation
		JOINT RightUpLeg
		{
			OFFSET -1.40122 -1.83435 0.76627
			CHANNELS 3 Zrotation Yrotation Xrotation
			JOINT RightLeg
			{
				OFFSET -2.54052 -6.98003 0.00000
				CHANNELS 3 Zrotation Yrotation Xrotation
				JOINT RightFoot
				{
					OFFSET -2.63179 -7.23079 0.00000
					CHANNELS 3 Zrotation Yrotation Xrotation
					JOINT RightToeBase
					{
						OFFSET -0.24131 -0.66299 2.03908
						CHANNELS 3 Zrotation Yrotation Xrotation
						End Site
						{
							OFFSET -0.00000 -0.00000 1.07391
						}
					}
				}
			}
		}
	}
	JOINT LowerBack
	{
		OFFSET 0 0 0
		CHANNELS 3 Zrotation Yrotation Xrotation
		JOINT Spine
		{
			OFFSET 0.01174 2.10302 -0.29778
			CHANNELS 3 Zrotation Yrotation Xrotation
			JOINT Spine1
			{
				OFFSET 0.00772 2.13227 -0.01247
				CHANNELS 3 Zrotation Yrotation Xrotation
				JOINT Neck
				{
					OFFSET 0 0 0
					CHANNELS 3 Zrotation Yrotation Xrotation
					JOINT Neck1
					{
						OFFSET -0.09219 1.60848 0.31481
						CHANNELS 3 Zrotation Yrotation Xrotation
						JOINT Head
						{
							OFFSET 0.13974 1.65456 -0.31134
							CHANNELS 3 Zrotation Yrotation Xrotation
							End Site
							{
								OFFSET 0.04742 1.69515 -0.14578
							}
						}
					}
				}
				JOINT LeftShoulder
				{
					OFFSET 0 0 0
					CHANNELS 3 Zrotation Yrotation Xrotation
					JOINT LeftArm
					{
						OFFSET 3.24909 1.02882 -0.23993
						CHANNELS 3 Zrotation Yrotation Xrotation
						JOINT LeftForeArm
						{
							OFFSET 5.32955 -0.00000 -0.00000
							CHANNELS 3 Zrotation Yrotation Xrotation
							JOINT LeftHand
							{
								OFFSET 3.69232 -0.00000 -0.00000
								CHANNELS 3 Zrotation Yrotation Xrotation
								JOINT LeftFingerBase
								{
									OFFSET 0 0 0
									CHANNELS 3 Zrotation Yrotation Xrotation
									JOINT LeftHandIndex1
									{
										OFFSET 0.53660 -0.00000 -0.00000
										CHANNELS 3 Zrotation Yrotation Xrotation
										End Site
										{
											OFFSET 0.43262 -0.00000 -0.00000
										}
									}
								}
								JOINT LThumb
								{
									OFFSET 0 0 0
									CHANNELS 3 Zrotation Yrotation Xrotation
									End Site
									{
										OFFSET 0.43922 -0.00000 0.43922
									}
								}
							}
						}
					}
				}
				JOINT RightShoulder
				{
					OFFSET 0 0 0
					CHANNELS 3 Zrotation Yrotation Xrotation
					JOINT RightArm
					{
						OFFSET -3.21387 0.93002 -0.34594
						CHANNELS 3 Zrotation Yrotation Xrotation
						JOINT RightForeArm
						{
							OFFSET -5.23431 -0.00000 0.00000
							CHANNELS 3 Zrotation Yrotation Xrotation
							JOINT RightHand
							{
								OFFSET -3.55301 -0.00000 -0.00000
								CHANNELS 3 Zrotation Yrotation Xrotation
								JOINT RightFingerBase
								{
									OFFSET 0 0 0
									CHANNELS 3 Zrotation Yrotation Xrotation
									JOINT RightHandIndex1
									{
										OFFSET -0.77252 -0.00000 -0.00000
										CHANNELS 3 Zrotation Yrotation Xrotation
										End Site
										{
											OFFSET -0.62283 -0.00000 -0.00000
										}
									}
								}
								JOINT RThumb
								{
									OFFSET 0 0 0
									CHANNELS 3 Zrotation Yrotation Xrotation
									End Site
									{
										OFFSET -0.63234 -0.00000 0.63234
									}
								}
							}
						}
					}
				}
			}
		}
	}
}
MOTION
Frames: 7
Frame Time: .0083333
15.4791 17.8173 -11.4082 0 0 0 0 0 0 -21 0 0 0 0 0 0 0 0 0 0 0 0 0 0 21 0 0 0 0 0 0 0 0 0 0 0 0 0 0 0 0 0 0 0 0 0 0 -16 0 0 21 0 0 11 0 0 0 -8 0 0 0 0 0 0 0 0 0 0 0 0 0 0 0 0 0 0 0 0 8 0 0 0 0 0 0 0 0 0 0 0 0 0 0 0 0 0
15.4791 17.8173 -11.4082 -112.1890 -88.7498 112.1540 0.0000 0.0000 0.0000 -18.7368 -10.2602 -22.9758 4.2227 12.4510 37.3467 0.3278 -1.1234 -10.4788 3.7698 -11.8476 -35.1949 0.0000 0.0000 0.0000 27.4376 1.0444 0.0349 -1.5463 -7.8492 22.2570 -0.9986 8.2012 -17.9107 -0.4678 -4.3867 12.1673 2.1088 1.5442 10.0874 0.1857 2.2500 1.2035 -1.2971 1.0604 -4.3252 -11.5161 -4.9380 -21.5179 8.4623 -6.5084 31.5613 4.2331 -3.1811 15.3748 -0.0000 -0.0000 0.0000 -87.8335 4.8138 17.0931 15.8875 -25.3679 -3.5976 -0.0000 -0.0000 7.5084 22.9533 23.1130 9.4390 -7.1250 0.0000 -0.0000 -6.5633 54.7281 -1.5735 -0.0000 -0.0000 0.0000 90.5608 -2.8386 11.6801 -14.6246 23.6206 -3.0740 0.0000 0.0000 7.8570 -16.7414 8.9926 -2.6919 7.1250 -0.0000 -0.0000 7.3056 -20.6306 4.2976
15.4315 17.8325 -11.4154 -114.6500 -88.7260 114.7350 0.0000 0.0000 0.0000 -18.4176 -11.1873 -22.9305 3.9835 12.1384 36.2235 0.3268 -1.5463 -10.3693 2.2242 -9.3183 -26.7961 0.0000 0.0000 0.0000 27.4607 0.9021 0.4801 -1.4342 -7.5720 21.4213 -0.9489 8.3058 -17.4823 -0.4817 -4.4508 12.3485 2.2365 1.5765 10.0890 0.0630 2.3019 1.1920 -1.5035 1.0831 -4.3259 -11.1185 -4.9831 -21.5313 8.1866 -6.6057 31.3974 4.0182 -3.2041 15.2833 -0.0000 -0.0000 0.0000 -87.5779 5.0063 17.4666 15.8263 -25.2846 -3.5714 -0.0000 -0.0000 7.2693 23.8171 23.6893 10.0568 -7.1250 0.0000 -0.0000 -5.8668 55.5058 -1.5166 -0.0000 -0.0000 0.0000 90.7638 -2.9730 11.5773 -14.7150 23.7476 -3.1103 0.0000 0.0000 7.5190 -16.4751 8.8495 -2.6050 7.1250 -0.0000 -0.0000 7.4992 -20.7925 4.3858
15.3824 17.8469 -11.4242 -118.4000 -88.6471 118.5380 0.0000 0.0000 0.0000 -18.0892 -12.2434 -22.6747 3.7061 11.7587 34.8835 0.3277 -1.6222 -10.3691 0.9489 -6.2038 -17.3769 0.0000 0.0000 0.0000 27.5376 0.9143 0.8264 -1.3836 -7.4427 21.0337 -0.9590 8.0967 -17.5532 -0.4746 -4.4184 12.2569 2.2520 1.5717 10.1370 0.1002 2.2989 1.2124 -1.4742 1.0813 -4.3324 -11.1894 -5.0040 -21.5335 8.1417 -6.5676 31.2298 4.0131 -3.1964 15.2022 0.0000 -0.0000 0.0000 -87.7892 5.1692 17.0359 15.7629 -25.1981 -3.5444 -0.0000 -0.0000 7.6673 23.7339 24.0957 10.1764 -7.1250 0.0000 -0.0000 -6.1072 55.9137 -1.6396 0.0000 -0.0000 0.0000 90.6876 -3.1171 11.7775 -14.8150 23.8877 -3.1506 0.0000 0.0000 7.0832 -16.3681 8.6069 -2.5168 7.1250 -0.0000 -0.0000 7.5810 -21.0482 4.3903
15.3341 17.8430 -11.4330 -120.4710 -88.5859 120.6120 0.0000 0.0000 0.0000 -18.0725 -12.9392 -22.5508 3.4268 11.3558 33.4894 0.3133 -0.3854 -10.4433 1.1035 -6.6747 -18.7551 0.0000 0.0000 0.0000 27.6056 0.8775 1.1974 -1.3370 -7.3214 20.6711 -0.9677 7.9450 -17.6174 -0.4884 -4.4812 12.4345 2.2613 1.5506 10.2448 0.1612 2.2758 1.2354 -1.4162 1.0690 -4.3715 -11.5325 -5.0336 -21.6256 8.3875 -6.5565 31.2530 4.1820 -3.1980 15.2598 0.0000 0.0000 0.0000 -88.0391 5.2492 16.4827 15.5850 -24.9547 -3.4690 -0.0000 -0.0000 8.3264 22.4394 24.0737 9.5621 -7.1250 0.0000 -0.0000 -7.4683 55.6219 -1.9547 0.0000 0.0000 0.0000 90.5302 -3.2819 11.9827 -14.8908 23.9938 -3.1814 0.0000 0.0000 6.6957 -16.0701 8.5712 -2.4584 7.1250 -0.0000 -0.0000 7.7963 -21.1000 4.5081
15.2877 17.8276 -11.4410 -120.4400 -88.4778 120.6160 0.0000 0.0000 0.0000 -18.1648 -13.2382 -22.6073 3.1479 10.9307 32.0464 0.2614 1.4018 -10.2736 2.2415 -9.3521 -26.9029 0.0000 0.0000 0.0000 27.7448 0.8595 1.4773 -1.3047 -7.2360 20.4164 -0.9608 8.0173 -17.5622 -0.5147 -4.5982 12.7659 2.4291 1.5381 10.3609 0.1748 2.2803 1.2518 -1.5003 1.0673 -4.4128 -11.3896 -5.0581 -21.7540 8.1832 -6.5572 31.2824 4.0689 -3.2048 15.2870 -0.0000 -0.0000 0.0000 -88.0490 5.3017 16.4578 15.3632 -24.6497 -3.3760 -0.0000 -0.0000 8.7027 21.6990 23.6642 9.0746 -7.1250 0.0000 -0.0000 -8.0799 55.0488 -2.0035 -0.0000 -0.0000 0.0000 90.4844 -3.4243 12.0685 -14.9968 24.1416 -3.2246 0.0000 0.0000 6.4124 -15.5995 8.4891 -2.3601 7.1250 -0.0000 -0.0000 8.1373 -21.2074 4.6892
15.2381 17.8204 -11.4500 -122.0290 -88.4275 122.2540 0.0000 0.0000 0.0000 -18.2480 -13.3198 -22.6985 2.8748 10.4895 30.5769 0.2223 2.1535 -9.9664 2.9370 -10.5923 -30.9169 0.0000 0.0000 0.0000 27.8323 0.8926 1.7051 -1.2883 -7.1920 20.2855 -0.9763 7.9192 -17.6916 -0.4746 -4.4181 12.2560 2.4940 1.5208 10.4262 0.1717 2.2651 1.2684 -1.5398 1.0582 -4.4297 -11.2819 -5.0570 -21.7873 8.0007 -6.5155 31.2183 3.9773 -3.1951 15.2458 0.0000 -0.0000 0.0000 -87.9837 5.4249 16.6825 15.2386 -24.4774 -3.3242 -0.0000 -0.0000 8.5817 21.9682 23.6821 9.2033 -7.1250 0.0000 -0.0000 -7.8065 55.1213 -1.9488 0.0000 -0.0000 0.0000 90.4552 -3.5163 12.2271 -15.0487 24.2139 -3.2459 0.0000 0.0000 6.1304 -15.2565 8.4119 -2.2849 7.1250 -0.0000 -0.0000 8.3865 -21.3026 4.8176
